<svg xmlns="http://www.w3.org/2000/svg" width="19.375" height="26.59" viewBox="0 0 19.375 26.59">
  <defs>
    <style>
      .cls-1 {
        fill: #fff;
        fill-rule: evenodd;
      }
    </style>
  </defs>
  <path class="cls-1" d="M273.686,3736.98a9.792,9.792,0,0,0-9.686,9.87c0,5.09,7.87,14.57,8.766,15.63l0.92,1.09,0.919-1.09c0.9-1.06,8.766-10.54,8.766-15.63A9.791,9.791,0,0,0,273.686,3736.98Zm0,22.77c-2.642-3.32-7.263-9.76-7.263-12.9a7.264,7.264,0,1,1,14.525,0C280.948,3749.98,276.328,3756.43,273.686,3759.75Zm-0.023-17.87a4.941,4.941,0,1,0,4.846,4.94A4.895,4.895,0,0,0,273.663,3741.88Zm0,7.41a2.47,2.47,0,1,1,2.423-2.47A2.451,2.451,0,0,1,273.663,3749.29Z" transform="translate(-264 -3736.97)"/>
</svg>
