<svg xmlns="http://www.w3.org/2000/svg" width="20.718" height="21.719" viewBox="0 0 20.718 21.719">
  <defs>
    <style>
      .cls-1 {
        fill: #e30f20;
        fill-rule: evenodd;
      }
    </style>
  </defs>
  <path id="Shape_2_copy" data-name="Shape 2 copy" class="cls-1" d="M417.858,848v-5.515l0.293,0.289,1.414-1.4-7.708-7.609-7.707,7.609,1.414,1.4,0.293-.289V848h12Zm-2-7.49v5.515h-8v-5.515l4-3.949Zm-2,3.541v-1.975h-2v1.975h2Zm-3-12.835v1.974h2v-4.936a1.99,1.99,0,0,0-2-1.975h-10a1.99,1.99,0,0,0-2,1.975v17.771a1.99,1.99,0,0,0,2,1.975h3v-1.975h-3v-1.974h2v-1.975h-2v-10.86h10Zm0-2.962v0.987h-10v-0.987h10Z" transform="translate(-398.844 -826.281)"/>
</svg>
