<svg xmlns="http://www.w3.org/2000/svg" width="23" height="24" viewBox="0 0 23 24">
  <defs>
    <style>
      .cls-1 {
        fill: #e30f20;
        fill-rule: evenodd;
      }
    </style>
  </defs>
  <path class="cls-1" d="M798.5,522.257l-6.34,6.308-2.317-2.305-1.425,1.418,3.742,3.724,7.766-7.727Zm-12.439-6.272V521.3a1.492,1.492,0,0,0-.5,1.114,1.513,1.513,0,0,0,3.025,0,1.492,1.492,0,0,0-.5-1.114v-5.316h-2.017Zm-9.118,5.929a10.113,10.113,0,0,0,10.127,10.076v-2.006a8.07,8.07,0,1,1,8.11-8.07H797.2a10.015,10.015,0,0,0-3.277-7.4l1.977-1.968-1.426-1.418L792.3,513.3a10.082,10.082,0,0,0-4.214-1.408V510h2.065V508H784.1V510h1.968v1.886A10.108,10.108,0,0,0,776.947,521.914Z" transform="translate(-776.938 -508)"/>
</svg>
