<svg xmlns="http://www.w3.org/2000/svg" width="203.75" height="18.84" viewBox="0 0 203.75 18.84">
  <defs>
    <style>
      .cls-1 {
        fill: #fff;
        fill-rule: evenodd;
      }
    </style>
  </defs>
  <path id="Shape_1_copy" data-name="Shape 1 copy" class="cls-1" d="M1530.26,3793.97h3.36v10.8h-3.36v-10.8Zm1.68-5.36a1.945,1.945,0,1,1-1.94,1.94,1.942,1.942,0,0,1,1.94-1.94m3.78,5.36h3.21v1.48h0.05a3.518,3.518,0,0,1,3.17-1.74c3.39,0,4.02,2.23,4.02,5.14v5.92h-3.35v-5.25c0-1.25-.03-2.86-1.74-2.86-1.75,0-2.01,1.36-2.01,2.77v5.34h-3.35v-10.8Zm-144.28,7.55a3.971,3.971,0,0,1-3.68-2.75,3.9,3.9,0,0,0,1.7-.05,0.091,0.091,0,0,0,.05-0.03,3.922,3.922,0,0,1-2.56-1.81,3.794,3.794,0,0,1-.58-2.11,3.744,3.744,0,0,0,1.76.48,3.955,3.955,0,0,1-1.63-2.4,3.911,3.911,0,0,1,.42-2.86,11.321,11.321,0,0,0,8.15,4.13c-0.02-.16-0.04-0.29-0.06-0.43a3.869,3.869,0,0,1,.58-2.59,3.788,3.788,0,0,1,2.68-1.79,3.845,3.845,0,0,1,3.46,1.1,0.19,0.19,0,0,0,.21.07,8.07,8.07,0,0,0,2.3-.89,0.219,0.219,0,0,1,.05-0.03h0.02a4.073,4.073,0,0,1-1.69,2.16,7.558,7.558,0,0,0,2.2-.6,0.038,0.038,0,0,0,.02.02c-0.15.2-.3,0.4-0.46,0.59a7.723,7.723,0,0,1-1.43,1.37,0.136,0.136,0,0,0-.07.13,11.387,11.387,0,0,1-.07,1.75,11.732,11.732,0,0,1-1.02,3.53,11.473,11.473,0,0,1-2.14,3.12,10.584,10.584,0,0,1-5.43,3.03,11.5,11.5,0,0,1-2.2.26,11.127,11.127,0,0,1-6.32-1.7c-0.02-.02-0.05-0.03-0.09-0.06a7.922,7.922,0,0,0,3.95-.55A7.735,7.735,0,0,0,1391.44,3801.52Zm90.94,1.28a1.981,1.981,0,0,1-1.32-1.29c-0.58-1.58-.75-8.2.36-9.51a2.15,2.15,0,0,1,1.44-.77c2.99-.32,12.2-0.27,13.26.11a2.052,2.052,0,0,1,1.31,1.26c0.63,1.63.65,7.59-.08,9.16a2.108,2.108,0,0,1-.94.95C1495.3,3803.29,1483.85,3803.28,1482.38,3802.8Zm4.74-3.1c1.8-.93,3.57-1.86,5.37-2.79-1.8-.94-3.58-1.87-5.37-2.81v5.6Zm-137.29-8.48c0.56-.02,1.11-0.01,1.66-0.01h0.23v-2.88c-0.3-.03-0.6-0.07-0.91-0.08-0.57-.03-1.14-0.06-1.71-0.04a4.077,4.077,0,0,0-2.4.74,3.587,3.587,0,0,0-1.44,2.4,8.637,8.637,0,0,0-.1,1.24c-0.02.65-.01,1.29-0.01,1.94v0.24h-2.75v3.22h2.74v8.09h3.34V3798h2.73c0.14-1.07.27-2.13,0.42-3.23h-3.17s0.01-1.6.03-2.29A1.183,1.183,0,0,1,1349.83,3791.22Zm97.36,15.34h-10.67a3.97,3.97,0,0,1-4-3.92v-11a3.97,3.97,0,0,1,4-3.92h10.67a3.97,3.97,0,0,1,4,3.92v11a3.97,3.97,0,0,1-4,3.92m-10.67-17.22a2.353,2.353,0,0,0-2.39,2.3v11a2.353,2.353,0,0,0,2.39,2.3h10.67a2.353,2.353,0,0,0,2.39-2.3v-11a2.353,2.353,0,0,0-2.39-2.3h-10.67Zm5.33,12.69a4.89,4.89,0,1,1,4.88-4.89,4.887,4.887,0,0,1-4.88,4.89m0-8.16a3.27,3.27,0,1,0,3.27,3.27A3.263,3.263,0,0,0,1441.85,3793.87Zm6.38-1.86a1.14,1.14,0,1,1-1.14-1.15,1.139,1.139,0,0,1,1.14,1.15" transform="translate(-1342.41 -3787.72)"/>
</svg>
