<svg xmlns="http://www.w3.org/2000/svg" width="24" height="24" viewBox="0 0 24 24">
  <defs>
    <style>
      .cls-1 {
        fill: #fff;
        fill-rule: evenodd;
      }
    </style>
  </defs>
  <path class="cls-1" d="M1242,2387a12,12,0,1,0,12,12A12.01,12.01,0,0,0,1242,2387Zm9.95,11h-2.9a16.262,16.262,0,0,0-2.13-7.7A10.043,10.043,0,0,1,1251.95,2398Zm-10.95-8.79V2398h-4.06C1237.17,2393.69,1238.87,2390.08,1241,2389.21Zm0,10.79v8.8c-2.13-.88-3.83-4.48-4.06-8.8H1241Zm2,8.8V2400h4.06C1246.83,2404.32,1245.13,2407.92,1243,2408.8Zm0-10.8v-8.79c2.13,0.87,3.83,4.48,4.06,8.79H1243Zm-5.92-7.7a16.378,16.378,0,0,0-2.13,7.7h-2.9A10.043,10.043,0,0,1,1237.08,2390.3Zm-5.03,9.7h2.9a16.378,16.378,0,0,0,2.13,7.7A10.043,10.043,0,0,1,1232.05,2400Zm14.87,7.7a16.262,16.262,0,0,0,2.13-7.7h2.9A10.043,10.043,0,0,1,1246.92,2407.7Z" transform="translate(-1230 -2387)"/>
</svg>
