<svg xmlns="http://www.w3.org/2000/svg" width="16" height="21.969" viewBox="0 0 16 21.969">
  <defs>
    <style>
      .cls-1 {
        fill: #e30f20;
        fill-rule: evenodd;
      }
    </style>
  </defs>
  <path class="cls-1" d="M407,509.763a8.086,8.086,0,0,0-8,8.153c0,4.2,6.5,12.027,7.24,12.907l0.76,0.9,0.759-.9c0.741-.88,7.24-8.708,7.24-12.907A8.086,8.086,0,0,0,407,509.763Zm0,18.8c-2.182-2.737-6-8.062-6-10.648a6,6,0,1,1,12,0C413,520.5,409.182,525.827,407,528.564Zm-0.019-14.758a4.081,4.081,0,1,0,4,4.08A4.047,4.047,0,0,0,406.981,513.806Zm0,6.12a2.04,2.04,0,1,1,2-2.04A2.023,2.023,0,0,1,406.981,519.926Z" transform="translate(-399 -509.75)"/>
</svg>
