<svg xmlns="http://www.w3.org/2000/svg" width="24" height="24" viewBox="0 0 24 24">
  <defs>
    <style>
      .cls-1 {
        fill: #fff;
        fill-rule: evenodd;
      }
    </style>
  </defs>
  <path class="cls-1" d="M1469,2388a3.009,3.009,0,0,0-3,3v4.04a2.956,2.956,0,0,0-2.21.84l-2.5,2.5a1.033,1.033,0,0,0-.29.71V2409h2v-1h5v1h2v-3h-2v-0.59l3.71-3.7a1.033,1.033,0,0,0,.29-0.71v-10A3.009,3.009,0,0,0,1469,2388Zm1,12.59-3.71,3.7a1.033,1.033,0,0,0-.29.71v1h-3v-6.5l2.21-2.21a1.014,1.014,0,0,1,1.41,0,1.014,1.014,0,0,1,0,1.42l-1.5,1.5,1.42,1.41,1.5-1.5a3.018,3.018,0,0,0,0-4.24,0.138,0.138,0,0,1-.04-0.03V2391a1,1,0,0,1,2,0v9.59Zm-18.09,4.82V2406h-2v3h2v-1H1457v1h2v-9.91a1,1,0,0,0-.3-0.72l-2.58-2.49a2.958,2.958,0,0,0-2.12-.88v-4a3,3,0,0,0-6,0v10a0.984,0.984,0,0,0,.29.7ZM1450,2391a1,1,0,0,1,2,0v4.78a1.059,1.059,0,0,0-.12.1,2.994,2.994,0,0,0,0,4.24l1.5,1.5,1.41-1.41-1.5-1.5a1.014,1.014,0,0,1,0-1.42,1.011,1.011,0,0,1,1.43.01l2.28,2.21V2406h-3.09v-1a1.017,1.017,0,0,0-.28-0.7l-3.63-3.71V2391Zm7,1v2h6v-2a2.006,2.006,0,0,0-2-2h-2A2.006,2.006,0,0,0,1457,2392Zm5-5a2,2,0,1,0-2,2A2.006,2.006,0,0,0,1462,2387Z" transform="translate(-1448 -2385)"/>
</svg>
