<svg xmlns="http://www.w3.org/2000/svg" width="17.656" height="18" viewBox="0 0 17.656 18">
  <defs>
    <style>
      .cls-1 {
        fill: silver;
        fill-rule: evenodd;
      }
    </style>
  </defs>
  <path id="Shape_397_copy" data-name="Shape 397 copy" class="cls-1" d="M765.542,3131.12h7.508v-1.32h-7.508V3128h-1.314v4.92h1.314v-1.8Zm9.8-1.32V3128h-1.314v4.92h1.314v-1.8h1.989v13.58H762.314v-13.58h0.938v-1.32H761v16.21h17.643V3129.8h-3.3Zm-8,4.78H769v1.65h-1.652v-1.65Zm3.266,0h1.652v1.65H770.61v-1.65Zm-6.569,0h1.651v1.65h-1.651v-1.65Zm9.835,0h1.651v1.65h-1.651v-1.65Zm-6.532,3.27H769v1.66h-1.652v-1.66Zm3.266,0h1.652v1.66H770.61v-1.66Zm-6.569,0h1.651v1.66h-1.651v-1.66Zm9.835,0h1.651v1.66h-1.651v-1.66Zm-6.532,3.27H769v1.66h-1.652v-1.66Zm3.266,0h1.652v1.66H770.61v-1.66Zm-6.569,0h1.651v1.66h-1.651v-1.66Zm9.835,0h1.651v1.66h-1.651v-1.66Z" transform="translate(-761 -3128)"/>
</svg>
