<svg xmlns="http://www.w3.org/2000/svg" width="29.69" height="8.37" viewBox="0 0 29.69 8.37">
  <defs>
    <style>
      .cls-1 {
        fill: #2863ec;
        fill-rule: evenodd;
        opacity: 0.6;
      }
    </style>
  </defs>
  <path id="Shape_386_copy_6" data-name="Shape 386 copy 6" class="cls-1" d="M1005.46,2812.3l-3.46-3.46a0.736,0.736,0,0,0-1.03,0,0.718,0.718,0,0,0,0,1.03l2.22,2.23H976.729a0.725,0.725,0,1,0,0,1.45h26.461l-2.22,2.23a0.718,0.718,0,0,0,0,1.03,0.736,0.736,0,0,0,1.03,0l3.46-3.46a0.659,0.659,0,0,0,.21-0.52A0.666,0.666,0,0,0,1005.46,2812.3Z" transform="translate(-976 -2808.66)"/>
</svg>
